# xmcd
#
# Track frame offsets:
#	150
#	24852
#	39458
#	59685
#	83445
#	112356
#	128663
#	146958
#	166324
#
# Disc length: 2542 seconds
#
# Revision: 0
# Processed by: cddbd v1.5.1PL0 Copyright (c) Steve Scherf et al.
# Submitted via: EasyCDDAExtractor 8.0.2.1
#
DISCID=7809ec09
DTITLE=Kevin Smith - The Red Album
DYEAR=2001
DGENRE=Blues
TTITLE0=Livingroom Blues
TTITLE1=The Greenview Laundromat
TTITLE2=BigBossa
TTITLE3=Monday Morning
TTITLE4=All That's Left
TTITLE5=Down
TTITLE6=Melting
TTITLE7=Requiem for a Turkey
TTITLE8=Le Gunman
EXTD=
EXTT0=
EXTT1=
EXTT2=
EXTT3=
EXTT4=
EXTT5=
EXTT6=
EXTT7=
EXTT8=
PLAYORDER=
